HIERARCHY
ROOT Hips
{
	OFFSET 0.000000 0.000000 0.000000
	CHANNELS 6 Xposition Yposition Zposition Xrotation Yrotation Zrotation
	JOINT LeftUpLeg_virtual
	{
		OFFSET 0.000000 0.000000 0.000000
		CHANNELS 3 Xrotation Yrotation Zrotation
		JOINT LeftUpLeg
		{
			OFFSET 11.394100 -6.187798 -0.413800
			CHANNELS 3 Xrotation Yrotation Zrotation
			JOINT LeftLeg
			{
				OFFSET 0.430247 -32.302673 3.732800
				CHANNELS 3 Xrotation Yrotation Zrotation
				JOINT LeftFoot
				{
					OFFSET -0.430247 -48.264931 -6.423300
					CHANNELS 3 Xrotation Yrotation Zrotation
					JOINT LeftToeBase
					{
						OFFSET 4.230900 -16.068199 23.438400
						CHANNELS 3 Xrotation Yrotation Zrotation
						JOINT LeftToe_End
						{
							OFFSET 4.510700 0.695400 19.974600
							CHANNELS 3 Xrotation Yrotation Zrotation
							End Site
							{
								OFFSET 0 0 0
							}
						}
					}
				}
			}
		}
	}
	JOINT RightUpLeg_virtual
	{
		OFFSET 0.000000 0.000000 0.000000
		CHANNELS 3 Xrotation Yrotation Zrotation
		JOINT RightUpLeg
		{
			OFFSET -11.333700 -6.187798 -0.413800
			CHANNELS 3 Xrotation Yrotation Zrotation
			JOINT RightLeg
			{
				OFFSET -0.430392 -32.302628 3.733000
				CHANNELS 3 Xrotation Yrotation Zrotation
				JOINT RightFoot
				{
					OFFSET 0.430392 -48.264973 -6.423500
					CHANNELS 3 Xrotation Yrotation Zrotation
					JOINT RightToeBase
					{
						OFFSET -4.230900 -16.068199 23.438400
						CHANNELS 3 Xrotation Yrotation Zrotation
						JOINT RightToe_End
						{
							OFFSET -4.510700 0.695400 19.974600
							CHANNELS 3 Xrotation Yrotation Zrotation
							End Site
							{
								OFFSET 0 0 0
							}
						}
					}
				}
			}
		}
	}
	JOINT Spine_virtual
	{
		OFFSET 0.000000 0.000000 0.000000
		CHANNELS 3 Xrotation Yrotation Zrotation
		JOINT Spine
		{
			OFFSET -0.002400 12.777504 0.315300
			CHANNELS 3 Xrotation Yrotation Zrotation
			JOINT Spine1
			{
				OFFSET -0.002067 5.816869 0.032633
				CHANNELS 3 Xrotation Yrotation Zrotation
				JOINT Spine1_split
				{
					OFFSET -0.002067 5.816869 0.032633
					CHANNELS 3 Xrotation Yrotation Zrotation
					JOINT Spine2
					{
						OFFSET -0.002067 5.816869 0.032633
						CHANNELS 3 Xrotation Yrotation Zrotation
						JOINT Neck_virtual
						{
							OFFSET 0.000000 0.000000 0.000000
							CHANNELS 3 Xrotation Yrotation Zrotation
							JOINT Neck
							{
								OFFSET -0.003700 21.199493 -0.826900
								CHANNELS 3 Xrotation Yrotation Zrotation
								JOINT Head
								{
									OFFSET 0.000000 20.442200 4.834800
									CHANNELS 3 Xrotation Yrotation Zrotation
									JOINT HeadTop_End
									{
										OFFSET 0.000000 34.668396 4.968400
										CHANNELS 3 Xrotation Yrotation Zrotation
										End Site
										{
											OFFSET 0 0 0
										}
									}
								}
							}
						}
						JOINT LeftShoulder_virtual
						{
							OFFSET 0.000000 0.000000 0.000000
							CHANNELS 3 Xrotation Yrotation Zrotation
							JOINT LeftShoulder
							{
								OFFSET 3.288150 8.794197 -1.372250
								CHANNELS 3 Xrotation Yrotation Zrotation
								JOINT LeftShoulder_split
								{
									OFFSET 3.288150 8.794197 -1.372250
									CHANNELS 3 Xrotation Yrotation Zrotation
									JOINT LeftArm
									{
										OFFSET 11.953299 -2.279007 -0.146200
										CHANNELS 3 Xrotation Yrotation Zrotation
										JOINT LeftForeArm
										{
											OFFSET 18.448900 0.000000 0.000000
											CHANNELS 3 Xrotation Yrotation Zrotation
											JOINT LeftHand
											{
												OFFSET 29.527798 0.000000 0.000000
												CHANNELS 3 Xrotation Yrotation Zrotation
												End Site
												{
													OFFSET 0 0 0
												}
											}
										}
									}
								}
							}
						}
						JOINT RightShoulder_virtual
						{
							OFFSET 0.000000 0.000000 0.000000
							CHANNELS 3 Xrotation Yrotation Zrotation
							JOINT RightShoulder
							{
								OFFSET -3.249400 8.794197 -1.372250
								CHANNELS 3 Xrotation Yrotation Zrotation
								JOINT RightShoulder_split
								{
									OFFSET -3.249400 8.794197 -1.372250
									CHANNELS 3 Xrotation Yrotation Zrotation
									JOINT RightArm
									{
										OFFSET -11.953299 -2.279007 -0.146200
										CHANNELS 3 Xrotation Yrotation Zrotation
										JOINT RightForeArm
										{
											OFFSET -18.448900 0.000000 0.000000
											CHANNELS 3 Xrotation Yrotation Zrotation
											JOINT RightHand
											{
												OFFSET -29.527802 0.000000 0.000000
												CHANNELS 3 Xrotation Yrotation Zrotation
												End Site
												{
													OFFSET 0 0 0
												}
											}
										}
									}
								}
							}
						}
					}
				}
			}
		}
	}
}
MOTION
Frames: 8
Frame Time: 0.03333333
10.684072 83.445343 71.457184 0.000000 0.000000 0.000000 162.719381 49.525066 -175.749701 -70.120949 -5.785023 19.268332 26.870355 -34.046994 4.886827 17.855974 -3.005455 -18.752790 2.520103 2.326185 -9.412324 0.000000 0.000000 0.000000 165.370163 42.764238 179.764691 -13.251370 -29.565826 -21.526366 32.767911 -1.936714 2.179800 -15.120242 -7.350438 21.315531 5.446113 0.333932 -0.539311 0.000000 0.000000 0.000000 164.047565 48.780480 -177.447044 16.726742 4.342667 -1.360329 10.832221 13.653453 -12.210239 0.523027 -5.546872 1.478095 0.000000 0.000000 0.000000 3.404099 13.054326 -10.365008 5.351028 4.304952 5.904766 -4.129335 8.743907 -7.780862 0.000000 0.000000 0.000000 2.523606 13.715194 -11.167211 0.823800 19.350238 -5.104960 -6.165479 -1.703097 -0.050875 21.984055 32.659103 -67.084288 -56.597113 -27.524815 -29.465754 0.000000 0.000000 0.000000 2.233203 12.921957 -11.096240 5.712605 14.501981 1.772886 -7.623500 -2.557958 0.288419 -56.155582 31.488115 69.789575 35.345997 30.739587 -0.093403 0.000000 0.000000 0.000000 
10.422595 84.016533 69.717369 0.000000 0.000000 0.000000 161.674334 54.648193 -174.726689 -67.549779 -7.051161 21.743460 32.902616 -33.080724 5.296282 13.043378 -1.750795 -17.771978 2.998468 2.104878 -9.671772 0.000000 0.000000 0.000000 164.587369 47.549622 -179.283819 -19.618040 -26.924478 -23.381428 34.516928 -0.405254 1.675241 -10.297329 -5.288398 20.737238 3.385546 0.709720 -0.335319 0.000000 0.000000 0.000000 162.753231 53.838952 -176.370811 16.513891 4.467353 -0.660995 10.426894 13.051974 -12.295798 0.315027 -5.627589 1.588359 0.000000 0.000000 0.000000 3.151543 12.403838 -10.408937 4.094167 4.739882 5.092887 -2.990610 8.098788 -7.421697 0.000000 0.000000 0.000000 2.183181 13.086491 -11.226079 1.288544 17.911787 -7.837867 -6.298496 -1.165276 0.829587 16.803824 30.053724 -60.220931 -51.449885 -29.494178 -29.168801 0.000000 0.000000 0.000000 1.884142 12.254219 -11.136319 5.585676 13.710447 2.202909 -9.210966 -1.878184 0.498240 -48.684697 28.498175 67.099929 35.348107 38.071485 -0.792518 0.000000 0.000000 0.000000 
10.010887 84.142044 67.908669 0.000000 0.000000 0.000000 160.447113 59.737996 -173.504591 -64.446427 -8.660844 23.943317 39.905571 -31.650957 5.928331 7.835777 -0.407459 -17.410963 3.455365 2.036437 -9.482322 0.000000 0.000000 0.000000 163.543197 52.614593 -177.934392 -25.771113 -23.271657 -24.758452 36.189426 1.307971 0.911194 -5.403470 -3.128747 21.700633 0.531734 0.725786 0.463443 0.000000 0.000000 0.000000 161.417956 59.249753 -175.282530 16.307951 4.403289 -0.312885 9.850596 12.234546 -12.345951 0.210851 -5.413113 1.567329 0.000000 0.000000 0.000000 2.797328 11.652100 -10.453553 2.821410 5.076787 5.136690 -2.224319 7.418286 -6.504263 0.000000 0.000000 0.000000 1.631288 12.342017 -11.225573 1.504152 15.635370 -10.226713 -6.576477 -0.796381 1.496037 10.902645 26.865709 -51.619387 -45.325590 -31.565105 -28.255886 0.000000 0.000000 0.000000 1.220181 11.436284 -11.087603 5.326225 12.285248 2.628557 -10.810320 -1.077185 -0.030563 -41.064890 24.393783 62.890695 35.176427 48.626518 -1.356993 0.000000 0.000000 0.000000 
9.506943 83.942841 65.851418 0.000000 0.000000 0.000000 158.533813 64.539851 -171.396603 -60.893561 -10.160888 25.617176 46.255373 -29.352297 6.296085 2.396986 1.177006 -17.143824 3.087679 2.168276 -8.717524 0.000000 0.000000 0.000000 161.893269 57.863853 -175.765356 -30.889011 -19.065925 -25.259023 37.822374 2.931008 -0.067007 -2.090398 -1.392666 23.293534 -1.834352 0.421038 1.841116 0.000000 0.000000 0.000000 159.699945 64.768881 -173.646385 16.109341 4.045160 -0.303020 9.067273 11.167522 -12.342598 0.317700 -4.799208 1.676433 0.000000 0.000000 0.000000 2.332917 10.746545 -10.493445 1.700378 5.239953 5.738232 -2.386627 6.519320 -5.016307 0.000000 0.000000 0.000000 0.789250 11.447746 -11.155227 1.401944 12.801112 -11.701001 -6.740547 -0.458325 1.972832 4.280288 22.738285 -42.167211 -38.059037 -33.624758 -26.250615 0.000000 0.000000 0.000000 0.257888 10.451100 -10.968497 4.979934 10.344482 2.932398 -11.875314 0.231849 -1.037206 -34.501922 19.086544 57.855179 34.433371 61.658399 -1.403640 0.000000 0.000000 0.000000 
9.034425 83.864624 63.606071 0.000000 0.000000 0.000000 154.756541 69.177379 -167.132475 -57.258524 -11.161218 26.714086 50.899307 -26.316785 6.152727 -2.948734 2.669760 -16.553773 1.900082 2.435317 -7.684865 0.000000 0.000000 0.000000 159.014754 63.356445 -172.209177 -34.485950 -14.994765 -24.864192 39.350929 3.920895 -1.074252 -1.620832 -0.856145 23.889512 -1.571414 -0.021046 3.933424 0.000000 0.000000 0.000000 156.819067 70.058166 -170.516178 15.863924 3.375704 -0.533675 8.105437 9.875071 -12.248880 0.443966 -4.374559 1.671623 0.000000 0.000000 0.000000 1.697551 9.625974 -10.490044 0.903847 5.266493 6.498668 -3.599822 5.240023 -3.104471 0.000000 0.000000 0.000000 -0.261185 10.335782 -10.993581 1.043693 9.740229 -12.073895 -6.984910 -0.347167 2.010670 -2.158923 17.232356 -33.112952 -29.064818 -35.069627 -22.362960 0.000000 0.000000 0.000000 -0.901601 9.238227 -10.799721 4.548021 8.019281 3.053135 -12.164572 1.550200 -2.376809 -29.549625 13.207688 52.790727 31.763221 75.650820 0.318118 0.000000 0.000000 0.000000 
8.529360 84.244453 60.995140 0.000000 0.000000 0.000000 147.325241 73.655326 -159.010847 -53.961319 -11.413583 27.162826 53.816485 -22.681518 5.498195 -7.786220 3.727082 -15.480559 0.506082 2.723655 -6.769488 0.000000 0.000000 0.000000 154.099163 68.750458 -166.598272 -36.907607 -11.615677 -23.870010 40.231013 3.790343 -1.886223 -3.745856 -1.836706 22.739443 1.852586 -0.307769 6.605697 0.000000 0.000000 0.000000 150.981796 75.048486 -164.140046 15.453390 2.417951 -0.880432 7.011500 8.361088 -11.997550 0.603758 -3.735551 1.326835 0.000000 0.000000 0.000000 0.884928 8.286607 -10.400882 0.611990 5.279048 7.011915 -5.661621 3.596254 -1.052969 0.000000 0.000000 0.000000 -1.393024 8.975334 -10.729531 0.566303 6.577275 -11.437391 -6.867140 -0.502042 1.564348 -7.508978 10.119936 -25.823632 -18.617376 -34.860630 -16.615917 0.000000 0.000000 0.000000 -2.033151 7.787762 -10.567050 4.140330 5.584773 2.994257 -11.895778 1.811702 -3.672811 -25.914426 7.759316 48.225288 -17.556636 88.525672 48.582862 0.000000 0.000000 0.000000 
7.915543 85.133720 57.788918 0.000000 0.000000 0.000000 132.875060 77.716966 -143.746809 -51.277123 -10.812165 26.849919 55.552056 -18.500223 4.499838 -12.118217 4.381478 -13.494855 -0.232165 2.920889 -6.418253 0.000000 0.000000 0.000000 145.424495 73.958518 -157.260133 -38.152299 -9.220558 -22.469350 39.929590 2.672590 -2.355557 -6.825987 -3.561061 20.475801 5.873100 -0.381926 9.305353 0.000000 0.000000 0.000000 138.141232 79.414070 -150.520294 14.951113 1.330504 -1.209005 5.943342 6.753038 -11.554552 0.716360 -3.079896 0.855506 0.000000 0.000000 0.000000 -0.010352 6.806870 -10.137950 0.936356 5.391266 6.983255 -8.096281 1.858899 0.789694 0.000000 0.000000 0.000000 -2.402276 7.395668 -10.326448 0.106400 3.666526 -10.215609 -6.167704 -0.757063 0.978082 -11.747270 1.568887 -21.162639 -8.050800 -32.850679 -10.160324 0.000000 0.000000 0.000000 -2.993306 6.224339 -10.195008 3.792031 3.477137 2.898094 -10.808120 0.845709 -4.543294 -23.209818 3.475949 44.605978 -138.537629 79.641358 168.376280 0.000000 0.000000 0.000000 
7.189507 86.625092 54.045311 0.000000 0.000000 0.000000 105.935606 80.438523 -115.937038 -49.065647 -9.177393 25.847562 56.599906 -13.823762 3.334907 -15.674256 4.735919 -11.147073 -0.042052 3.060157 -6.662307 0.000000 0.000000 0.000000 128.570047 78.557557 -139.760984 -38.156019 -7.999290 -20.900391 38.273802 0.970903 -2.580940 -8.881087 -5.108975 18.499397 7.773583 -0.557801 11.543788 0.000000 0.000000 0.000000 109.045732 82.495694 -120.556186 14.354127 0.298579 -1.419715 5.053987 5.186603 -10.903118 0.971801 -2.618877 0.376196 0.000000 0.000000 0.000000 -0.902046 5.328298 -9.647364 1.859856 5.618492 6.398517 -10.308428 0.376878 2.230533 0.000000 0.000000 0.000000 -3.167399 5.745689 -9.747016 -0.304971 1.225674 -8.659631 -5.312785 -0.705594 0.120659 -15.313025 -7.535760 -19.314163 0.878955 -29.997098 -4.391219 0.000000 0.000000 0.000000 -3.685696 4.679140 -9.639513 3.552274 2.095912 2.839559 -9.621788 -1.056112 -4.854890 -21.205830 0.841175 41.962118 -142.471025 71.617470 171.001135 0.000000 0.000000 0.000000 
